C:/Program Files/Krita (x64)/bin/ffmpeg.exe -hide_banner -y -y -r 6 -start_number 0 -start_number_range 1 -i C:/Users/bbybe/Desktop/anim/crab/frame%04d.png -vf scale=w=1650:h=1262:flags=bicubic -c:v libopenh264 -b:v 5000k C:/Users/bbybe/Desktop/anim/crab/crab.mkv
=====================================================
Input #0, image2, from 'C:/Users/bbybe/Desktop/anim/crab/frame%04d.png':
  Duration: 00:00:00.32, start: 0.000000, bitrate: N/A
  Stream #0:0: Video: png, rgba(pc), 1650x1261 [SAR 11811:11811 DAR 1650:1261], 25 fps, 25 tbr, 25 tbn, 25 tbc
Stream mapping:
  Stream #0:0 -> #0:0 (png (native) -> h264 (libopenh264))
Press [q] to stop, [?] for help
[libopenh264 @ 000002014144ab80] Slice count will be set automatically
[libopenh264 @ 000002014144ab80] [OpenH264] this = 0x00000201405B5690, Warning:bEnableFrameSkip = 0,bitrate can't be controlled for RC_QUALITY_MODE,RC_BITRATE_MODE and RC_TIMESTAMP_MODE without enabling skip frame.
Output #0, matroska, to 'C:/Users/bbybe/Desktop/anim/crab/crab.mkv':
  Metadata:
    encoder         : Lavf58.76.100
  Stream #0:0: Video: h264 (H264 / 0x34363248), yuv420p(tv, progressive), 1650x1262 [SAR 1262:1261 DAR 1650:1261], q=2-31, 5000 kb/s, 6 fps, 1k tbn
    Metadata:
      encoder         : Lavc58.134.100 libopenh264
    Side data:
      cpb: bitrate max/min/avg: 5000000/0/5000000 buffer size: 0 vbv_delay: N/A
frame=    1 fps=0.0 q=-0.0 size=       1kB time=00:00:00.00 bitrate=4944.0kbits/s speed=0.0258x    frame=    8 fps=0.0 q=-0.0 Lsize=     630kB time=00:00:01.16 bitrate=4420.3kbits/s speed=3.45x    
video:630kB audio:0kB subtitle:0kB other streams:0kB global headers:0kB muxing overhead: 0.112621%
